<svg xmlns="http://www.w3.org/2000/svg" width="1123" height="794" stroke="#ff8200" stroke-linecap="round" stroke-linejoin="miter" fill="#ff8200" fill-rule="nonzero"><path d="M63.2954 28.5075l.148 2.933c0-1-.06-1.966-.148-2.933z"/><path d="M15.9054 28.3384s-8.882 32.73 26.722 33.015c11.3918-4.2305 19.396-14.5589 20.65-26.646.086-.85.112-1.717.13-2.586l.034-.68c0-1-.06-1.966-.148-2.933-9.405 37.03-51.018 22.525-47.388-.17zm18.411-12.149s-33.148-9.254-32.6409 26.889c1.6999 4.368 4.3359 8.31 7.7249 11.55.14.135.3.262.434.395.96.884 1.97 1.708 3.03 2.47.164.118.32.246.4841.362 1.1201.7659 2.2882 1.4593 3.4969 2.076.35.18.7.346 1.07.514a31.61 31.61 0 0 0 3.194 1.296c.2671.09.522.205.7921.3 1.3029.4 2.6299.714 3.9749.942.406.072.82.13 1.2301.188 1.3942.2018 2.8003.3113 4.2089.328.054 0 .106.008.16.008 1.062 0 2.11-.057 3.146-.16-37.198-8.874-23.055-50.465-.305-47.147zm12.921 17.142s7.843-33.066-27.46-31.586C6.0193 7.064-2.2338 21.1884-.1126 35.7854c7.43-37.4 49.758-25.297 47.35-2.452zm-16.95 14.23s33.208 4.334 31.13-27.236C56.0699 5.7467 40.9673-2.8302 25.7074.0454c37.003 4.542 27.386 47.838 4.58 47.515zm10.43-16.12c.0008 3.6207-2.1799 6.8852-5.525 8.2707a8.95 8.95 0 0 1-11.6922-11.6974c1.387-3.3444 4.6525-5.5237 8.2732-5.5213 4.9398.0033 8.9429 4.0082 8.944 8.948z"/></svg>