<svg id="astronaut"
    xmlns="http://www.w3.org/2000/svg">
    <g>
        <title>Layer 1</title>
        <path id="svg_2" d="m-22.0549,41.76965l0.56913,0l0.17587,-0.54067l0.17587,0.54067l0.56913,0l-0.46044,0.33415l0.17588,0.54067l-0.46044,-0.33416l-0.46044,0.33416l0.17588,-0.54067l-0.46044,-0.33415z" stroke-width="0" stroke="#000" fill="#4c4c4c" />
        <g transform="rotate(11 101.01 79.5168)" id="svg_260">
            <rect stroke="#000" id="svg_236" height="8.63636" width="8.63636" y="105.53919" x="132.29651" stroke-width="0" fill="#848484" />
            <rect stroke="#000" id="svg_237" height="8.63636" width="8.63636" y="105.53919" x="123.71808" stroke-width="0" fill="#848484" />
            <rect stroke="#000" id="svg_238" height="8.63636" width="8.63636" y="105.53919" x="115.13965" stroke-width="0" fill="#848484" />
            <rect stroke="#000" id="svg_239" height="8.63636" width="8.63636" y="96.96076" x="106.31612" stroke-width="0" fill="#848484" />
            <rect stroke="#000" id="svg_240" height="8.63636" width="8.63636" y="96.96076" x="97.73768" stroke-width="0" fill="#848484" />
            <rect stroke="#000" id="svg_241" height="8.63636" width="8.63636" y="96.96076" x="89.15925" stroke-width="0" fill="#848484" />
            <rect stroke="#000" id="svg_242" height="8.63636" width="8.63636" y="88.38233" x="80.33572" stroke-width="0" fill="#848484" />
            <rect stroke="#000" id="svg_243" height="8.63636" width="8.63636" y="79.68667" x="63.14148" stroke-width="0" fill="#848484" />
            <rect stroke="#000" id="svg_245" height="8.63636" width="8.63636" y="88.38233" x="71.83714" stroke-width="0" fill="#848484" />
            <rect stroke="#000" id="svg_246" height="8.63636" width="8.63636" y="71.18809" x="54.35961" stroke-width="0" fill="#848484" />
            <rect stroke="#000" id="svg_247" height="8.63636" width="8.63636" y="62.68951" x="54.35961" stroke-width="0" fill="#848484" />
            <g transform="rotate(180 24.0686 45.3614)" id="svg_258">
                <rect stroke="#000" id="svg_248" height="8.63636" width="8.63636" y="62.46803" x="54.42969" stroke-width="0" fill="#848484" />
                <rect stroke="#000" id="svg_249" height="8.63636" width="8.63636" y="62.46803" x="45.85126" stroke-width="0" fill="#848484" />
                <rect stroke="#000" id="svg_250" height="8.63636" width="8.63636" y="53.8896" x="37.02773" stroke-width="0" fill="#848484" />
                <rect stroke="#000" id="svg_251" height="8.63636" width="8.63636" y="53.8896" x="28.4493" stroke-width="0" fill="#848484" />
                <rect stroke="#000" id="svg_252" height="8.63636" width="8.63636" y="53.8896" x="19.87087" stroke-width="0" fill="#848484" />
                <rect stroke="#000" id="svg_253" height="8.63636" width="8.63636" y="45.31117" x="11.04734" stroke-width="0" fill="#848484" />
                <rect stroke="#000" id="svg_254" height="8.63636" width="8.63636" y="36.61552" x="-6.1469" stroke-width="0" fill="#848484" />
                <rect stroke="#000" id="svg_255" height="8.63636" width="8.63636" y="45.31117" x="2.54875" stroke-width="0" fill="#848484" />
                <rect stroke="#000" id="svg_256" height="8.63636" width="8.63636" y="28.11693" x="-14.92877" stroke-width="0" fill="#848484" />
                <rect stroke="#000" id="svg_257" height="8.63636" width="8.63636" y="19.61835" x="-14.92877" stroke-width="0" fill="#848484" />
            </g>
            <g id="svg_259">
                <rect stroke="#000" id="svg_59" height="8.63636" width="8.63636" y="79.95617" x="199.88321" stroke-width="0" fill="#a3a3a3" />
                <rect stroke="#000" id="svg_1" height="8.63636" width="8.63636" y="63.05808" x="199.88321" stroke-width="0" fill="#545454" />
                <rect stroke="#000" id="svg_3" height="8.63636" width="8.63636" y="79.95617" x="191.45361" stroke-width="0" fill="#bcbcbc" />
                <rect stroke="#000" id="svg_4" height="8.63636" width="8.63636" y="63.05808" x="191.45361" stroke-width="0" fill="#7c7c7c" />
                <rect stroke="#000" id="svg_5" height="8.63636" width="8.63636" y="79.95617" x="183.02401" stroke-width="0" fill="#bcbcbc" />
                <rect stroke="#000" id="svg_6" height="8.63636" width="8.63636" y="63.05808" x="183.02401" stroke-width="0" fill="#7c7c7c" />
                <rect stroke="#000" id="svg_7" height="8.63636" width="8.63636" y="79.95617" x="174.59441" stroke-width="0" fill="#bcbcbc" />
                <rect stroke="#000" id="svg_8" height="8.63636" width="8.63636" y="63.05808" x="174.59441" stroke-width="0" fill="#7c7c7c" />
                <rect stroke="#000" id="svg_9" height="8.63636" width="8.63636" y="54.60171" x="199.88321" stroke-width="0" fill="#7c7c7c" />
                <rect stroke="#000" id="svg_10" height="8.63636" width="8.63636" y="46.19888" x="199.88321" stroke-width="0" fill="#a3a3a3" />
                <rect stroke="#000" id="svg_11" height="8.63636" width="8.63636" y="54.60171" x="191.45361" stroke-width="0" fill="#7c7c7c" />
                <rect stroke="#000" id="svg_12" height="8.63636" width="8.63636" y="46.19888" x="191.45361" stroke-width="0" fill="#bcbcbc" />
                <rect stroke="#000" id="svg_13" height="8.63636" width="8.63636" y="54.60171" x="183.02401" stroke-width="0" fill="#7c7c7c" />
                <rect stroke="#000" id="svg_14" height="8.63636" width="8.63636" y="46.19888" x="183.02401" stroke-width="0" fill="#bcbcbc" />
                <rect stroke="#000" id="svg_15" height="8.63636" width="8.63636" y="54.60171" x="174.59441" stroke-width="0" fill="#7c7c7c" />
                <rect stroke="#000" id="svg_16" height="8.63636" width="8.63636" y="46.19888" x="174.59441" stroke-width="0" fill="#bcbcbc" />
                <rect stroke="#000" id="svg_17" height="8.63636" width="8.63636" y="79.95617" x="166.16481" stroke-width="0" fill="#bcbcbc" />
                <rect stroke="#000" id="svg_18" height="8.63636" width="8.63636" y="63.05808" x="166.16481" stroke-width="0" fill="#545454" />
                <rect stroke="#000" id="svg_19" height="8.63636" width="8.63636" y="80.20127" x="157.73521" stroke-width="0" fill="#a3a3a3" />
                <rect stroke="#000" id="svg_20" height="8.63636" width="8.63636" y="63.05808" x="157.73521" stroke-width="0" fill="#7c7c7c" />
                <rect stroke="#000" id="svg_21" height="8.63636" width="8.63636" y="79.95617" x="149.30561" stroke-width="0" fill="#a3a3a3" />
                <rect stroke="#000" id="svg_22" height="8.63636" width="8.63636" y="63.05808" x="149.30561" stroke-width="0" fill="#bcbcbc" />
                <rect stroke="#000" id="svg_23" height="8.63636" width="8.63636" y="79.95617" x="140.87601" stroke-width="0" fill="#848484" />
                <rect stroke="#000" id="svg_24" height="8.63636" width="8.63636" y="63.05808" x="140.87601" stroke-width="0" fill="#848484" />
                <rect stroke="#000" id="svg_25" height="8.63636" width="8.63636" y="54.60171" x="166.16481" stroke-width="0" fill="#7c7c7c" />
                <rect stroke="#000" id="svg_26" height="8.63636" width="8.63636" y="46.19888" x="166.16481" stroke-width="0" fill="#bcbcbc" />
                <rect stroke="#000" id="svg_27" height="8.63636" width="8.63636" y="54.60171" x="157.73521" stroke-width="0" fill="#7c7c7c" />
                <rect stroke="#000" id="svg_28" height="8.63636" width="8.63636" y="46.19888" x="157.73521" stroke-width="0" fill="#bcbcbc" />
                <rect stroke="#000" id="svg_29" height="8.63636" width="8.63636" y="54.60171" x="149.30561" stroke-width="0" fill="#bcbcbc" />
                <rect stroke="#000" id="svg_30" height="8.63636" width="8.63636" y="46.19888" x="149.30561" stroke-width="0" fill="#a3a3a3" />
                <rect stroke="#000" id="svg_31" height="8.63636" width="8.63636" y="54.60171" x="140.87601" stroke-width="0" fill="#848484" />
                <rect stroke="#000" id="svg_32" height="8.63636" width="8.63636" y="46.19888" x="140.87601" stroke-width="0" fill="#848484" />
                <rect stroke="#000" id="svg_33" height="8.63636" width="8.63636" y="28.84948" x="191.45361" stroke-width="0" fill="#494949" />
                <rect stroke="#000" id="svg_34" height="8.63636" width="8.63636" y="28.84948" x="183.02401" stroke-width="0" fill="#494949" />
                <rect stroke="#000" id="svg_35" height="8.63636" width="8.63636" y="28.84948" x="174.59441" stroke-width="0" fill="#494949" />
                <rect stroke="#000" id="svg_36" height="8.63636" width="8.63636" y="28.84948" x="166.16481" stroke-width="0" fill="#494949" />
                <rect stroke="#000" id="svg_37" height="8.63636" width="8.63636" y="28.84948" x="157.73521" stroke-width="0" fill="#494949" />
                <rect stroke="#000" id="svg_38" height="8.63636" width="8.63636" y="28.84948" x="149.30561" stroke-width="0" fill="#494949" />
                <rect stroke="#000" id="svg_39" height="8.63636" width="8.63636" y="79.95617" x="208.31281" stroke-width="0" fill="#494949" />
                <rect stroke="#000" id="svg_40" height="8.63636" width="8.63636" y="63.05808" x="208.31281" stroke-width="0" fill="#494949" />
                <rect stroke="#000" id="svg_41" height="8.63636" width="8.63636" y="54.60171" x="208.31281" stroke-width="0" fill="#494949" />
                <rect stroke="#000" id="svg_42" height="8.63636" width="8.63636" y="46.19888" x="208.31281" stroke-width="0" fill="#494949" />
                <rect stroke="#000" id="svg_43" height="8.63636" width="8.63636" y="79.95617" x="132.20131" stroke-width="0" fill="#494949" />
                <rect stroke="#000" id="svg_44" height="8.63636" width="8.63636" y="63.05808" x="132.20131" stroke-width="0" fill="#494949" />
                <rect stroke="#000" id="svg_45" height="8.63636" width="8.63636" y="54.60171" x="132.20131" stroke-width="0" fill="#494949" />
                <rect stroke="#000" id="svg_46" height="8.63636" width="8.63636" y="46.19888" x="132.20131" stroke-width="0" fill="#494949" />
                <rect stroke="#000" id="svg_47" height="8.63636" width="8.63636" y="37.52418" x="199.88321" stroke-width="0" fill="#494949" />
                <rect stroke="#000" id="svg_48" height="8.63636" width="8.63636" y="37.52418" x="191.45361" stroke-width="0" fill="#a3a3a3" />
                <rect stroke="#000" id="svg_70" height="8.63636" width="8.63636" y="37.52418" x="183.02401" stroke-width="0" fill="#a3a3a3" />
                <rect stroke="#000" id="svg_71" height="8.63636" width="8.63636" y="37.52418" x="174.59441" stroke-width="0" fill="#a3a3a3" />
                <rect stroke="#000" id="svg_72" height="8.63636" width="8.63636" y="37.52418" x="166.16481" stroke-width="0" fill="#a3a3a3" />
                <rect stroke="#000" id="svg_73" height="8.63636" width="8.63636" y="37.52418" x="157.73521" stroke-width="0" fill="#848484" />
                <rect stroke="#000" id="svg_74" height="8.63636" width="8.63636" y="37.52418" x="149.30561" stroke-width="0" fill="#848484" />
                <rect stroke="#000" id="svg_75" height="8.63636" width="8.63636" y="37.52418" x="140.87601" stroke-width="0" fill="#494949" />
                <rect stroke="#000" id="svg_76" height="8.63636" width="8.63636" y="88.63087" x="199.88321" stroke-width="0" fill="#494949" />
                <rect stroke="#000" id="svg_77" height="8.63636" width="8.63636" y="88.63087" x="191.45361" stroke-width="0" fill="#a3a3a3" />
                <rect stroke="#000" id="svg_78" height="8.63636" width="8.63636" y="88.63087" x="183.02401" stroke-width="0" fill="#a3a3a3" />
                <rect stroke="#000" id="svg_79" height="8.63636" width="8.63636" y="88.63087" x="174.59441" stroke-width="0" fill="#a3a3a3" />
                <rect stroke="#000" id="svg_80" height="8.63636" width="8.63636" y="88.63087" x="166.16481" stroke-width="0" fill="#a3a3a3" />
                <rect stroke="#000" id="svg_81" height="8.63636" width="8.63636" y="88.63087" x="157.73521" stroke-width="0" fill="#a3a3a3" />
                <rect stroke="#000" id="svg_82" height="8.63636" width="8.63636" y="88.63087" x="149.30561" stroke-width="0" fill="#848484" />
                <rect stroke="#000" id="svg_83" height="8.63636" width="8.63636" y="88.63087" x="140.87601" stroke-width="0" fill="#494949" />
                <rect stroke="#000" id="svg_84" height="8.63636" width="8.63636" y="97.06047" x="191.45361" stroke-width="0" fill="#494949" />
                <rect stroke="#000" id="svg_85" height="8.63636" width="8.63636" y="97.06047" x="183.02401" stroke-width="0" fill="#bcbcbc" />
                <rect stroke="#000" id="svg_86" height="8.63636" width="8.63636" y="97.06047" x="174.59441" stroke-width="0" fill="#bcbcbc" />
                <rect stroke="#000" id="svg_87" height="8.63636" width="8.63636" y="97.06047" x="166.16481" stroke-width="0" fill="#bcbcbc" />
                <rect stroke="#000" id="svg_88" height="8.63636" width="8.63636" y="97.06047" x="157.73521" stroke-width="0" fill="#bcbcbc" />
                <rect stroke="#000" id="svg_89" height="8.63636" width="8.63636" y="97.06047" x="149.30561" stroke-width="0" fill="#848484" />
                <rect stroke="#000" id="svg_90" height="8.63636" width="8.63636" y="97.06047" x="140.87601" stroke-width="0" fill="#494949" />
                <rect stroke="#000" id="svg_91" height="8.63636" width="8.63636" y="105.49007" x="191.45361" stroke-width="0" fill="#494949" />
                <rect stroke="#000" id="svg_92" height="8.63636" width="8.63636" y="105.49007" x="183.02401" stroke-width="0" fill="#969696" />
                <rect stroke="#000" id="svg_93" height="8.63636" width="8.63636" y="105.49007" x="174.59441" stroke-width="0" fill="#d3d3d3" />
                <rect stroke="#000" id="svg_94" height="8.63636" width="8.63636" y="105.49007" x="166.16481" stroke-width="0" fill="#d3d3d3" />
                <rect stroke="#000" id="svg_95" height="8.63636" width="8.63636" y="105.49007" x="157.73521" stroke-width="0" fill="#969696" />
                <rect stroke="#000" id="svg_96" height="8.63636" width="8.63636" y="105.49007" x="149.30561" stroke-width="0" fill="#8e8e8e" />
                <rect stroke="#000" id="svg_97" height="8.63636" width="8.63636" y="105.49007" x="140.87601" stroke-width="0" fill="#494949" />
                <rect stroke="#000" id="svg_98" height="8.63636" width="8.63636" y="113.91967" x="191.45361" stroke-width="0" fill="#494949" />
                <rect stroke="#000" id="svg_99" height="8.63636" width="8.63636" y="113.91967" x="183.02401" stroke-width="0" fill="#bcbcbc" />
                <rect stroke="#000" id="svg_100" height="8.63636" width="8.63636" y="113.91967" x="174.59441" stroke-width="0" fill="#bcbcbc" />
                <rect stroke="#000" id="svg_101" height="8.63636" width="8.63636" y="113.91967" x="166.16481" stroke-width="0" fill="#bcbcbc" />
                <rect stroke="#000" id="svg_102" height="8.63636" width="8.63636" y="113.91967" x="157.73521" stroke-width="0" fill="#bcbcbc" />
                <rect stroke="#000" id="svg_103" height="8.63636" width="8.63636" y="113.91967" x="149.30561" stroke-width="0" fill="#848484" />
                <rect stroke="#000" id="svg_104" height="8.63636" width="8.63636" y="113.91967" x="140.87601" stroke-width="0" fill="#494949" />
                <rect stroke="#000" id="svg_105" height="8.63636" width="8.63636" y="122.34927" x="191.45361" stroke-width="0" fill="#494949" />
                <rect stroke="#000" id="svg_106" height="8.63636" width="8.63636" y="122.34927" x="183.02401" stroke-width="0" fill="#666666" />
                <rect stroke="#000" id="svg_107" height="8.63636" width="8.63636" y="122.34927" x="174.59441" stroke-width="0" fill="#494949" />
                <rect stroke="#000" id="svg_108" height="8.63636" width="8.63636" y="122.34927" x="166.16481" stroke-width="0" fill="#494949" />
                <rect stroke="#000" id="svg_109" height="8.63636" width="8.63636" y="122.34927" x="157.73521" stroke-width="0" fill="#494949" />
                <rect stroke="#000" id="svg_110" height="8.63636" width="8.63636" y="122.34927" x="149.30561" stroke-width="0" fill="#666666" />
                <rect stroke="#000" id="svg_111" height="8.63636" width="8.63636" y="122.34927" x="140.87601" stroke-width="0" fill="#494949" />
                <rect stroke="#000" id="svg_112" height="8.63636" width="8.63636" y="130.77887" x="191.45361" stroke-width="0" fill="#494949" />
                <rect stroke="#000" id="svg_113" height="8.63636" width="8.63636" y="130.77887" x="183.02401" stroke-width="0" fill="#494949" />
                <rect stroke="#000" id="svg_114" height="8.63636" width="8.63636" y="130.77887" x="174.59441" stroke-width="0" fill="#494949" />
                <rect stroke="#000" id="svg_115" height="8.63636" width="8.63636" y="130.74957" x="157.73521" stroke-width="0" fill="#494949" />
                <rect stroke="#000" id="svg_116" height="8.63636" width="8.63636" y="130.74957" x="149.30561" stroke-width="0" fill="#494949" />
                <rect stroke="#000" id="svg_117" height="8.63636" width="8.63636" y="130.74957" x="140.87601" stroke-width="0" fill="#494949" />
                <rect stroke="#000" id="svg_118" height="8.63636" width="8.63636" y="71.55334" x="199.88321" stroke-width="0" fill="#545454" />
                <rect stroke="#000" id="svg_119" height="8.63636" width="8.63636" y="71.55334" x="191.45361" stroke-width="0" fill="#7c7c7c" />
                <rect stroke="#000" id="svg_120" height="8.63636" width="8.63636" y="71.55334" x="183.02401" stroke-width="0" fill="#7c7c7c" />
                <rect stroke="#000" id="svg_121" height="8.63636" width="8.63636" y="71.55334" x="174.59441" stroke-width="0" fill="#7c7c7c" />
                <rect stroke="#000" id="svg_122" height="8.63636" width="8.63636" y="71.55334" x="166.16481" stroke-width="0" fill="#545454" />
                <rect stroke="#000" id="svg_123" height="8.63636" width="8.63636" y="71.55334" x="157.73521" stroke-width="0" fill="#7c7c7c" />
                <rect stroke="#000" id="svg_124" height="8.63636" width="8.63636" y="71.55334" x="149.30561" stroke-width="0" fill="#bcbcbc" />
                <rect stroke="#000" id="svg_125" height="8.63636" width="8.63636" y="71.55334" x="140.87601" stroke-width="0" fill="#848484" />
                <rect stroke="#000" id="svg_126" height="8.63636" width="8.63636" y="71.55334" x="208.31281" stroke-width="0" fill="#494949" />
                <rect stroke="#000" id="svg_127" height="8.63636" width="8.63636" y="71.55334" x="132.20131" stroke-width="0" fill="#494949" />
            </g>
        </g>
    </g>

</svg>